<svg width="16" height="17" viewBox="0 0 16 17" fill="none" xmlns="http://www.w3.org/2000/svg">
  <path d="M7.17498 2.49383V5.6774C7.17499 5.941 7.12291 6.20201 7.02173 6.44545C6.92055 6.68888 6.77227 6.90995 6.5854 7.09596C6.39853 7.28198 6.17674 7.42928 5.93277 7.52941C5.68879 7.62953 5.42744 7.68052 5.1637 7.67944H1.99491C1.73188 7.68103 1.47124 7.62953 1.22861 7.52802C0.985982 7.4265 0.766358 7.27707 0.582904 7.08867C0.396647 6.90406 0.249149 6.68414 0.14906 6.44179C0.0489719 6.19945 -0.00169091 5.93957 4.30499e-05 5.6774V2.50204C3.86002e-05 1.97248 0.209949 1.4645 0.583824 1.08928C0.957699 0.714056 1.46508 0.50217 1.99491 0.5H5.17191C5.43466 0.500252 5.69475 0.552597 5.93713 0.654002C6.1795 0.755408 6.39934 0.903861 6.58391 1.09077C6.77067 1.27373 6.91911 1.49201 7.02059 1.7329C7.12207 1.97379 7.17455 2.23246 7.17498 2.49383ZM16 2.50204V5.6774C15.9957 6.20564 15.7845 6.71116 15.4115 7.08546C15.0385 7.45977 14.5336 7.67301 14.0051 7.67944H10.8199C10.2889 7.67619 9.77989 7.46738 9.39971 7.09688C9.21394 6.9102 9.06684 6.68874 8.96682 6.44516C8.86681 6.20159 8.81584 5.94069 8.81685 5.6774V2.50204C8.81618 2.23929 8.86814 1.97906 8.96965 1.73668C9.07116 1.49431 9.22018 1.27469 9.40792 1.09077C9.5925 0.903861 9.81233 0.755408 10.0547 0.654002C10.2971 0.552597 10.5572 0.500252 10.8199 0.5H13.9969C14.5268 0.504289 15.0338 0.716594 15.4086 1.09112C15.7833 1.46565 15.9957 1.97239 16 2.50204ZM16 11.3225V14.4979C15.9957 15.0261 15.7845 15.5316 15.4115 15.9059C15.0385 16.2802 14.5336 16.4935 14.0051 16.4999H10.8199C10.2856 16.5053 9.77016 16.3022 9.38329 15.9337C9.19679 15.7476 9.0492 15.5262 8.94914 15.2825C8.84907 15.0388 8.79852 14.7777 8.80043 14.5143V11.3389C8.79977 11.0761 8.85172 10.8159 8.95323 10.5735C9.05474 10.3312 9.20376 10.1116 9.3915 9.92763C9.57608 9.74072 9.79592 9.59227 10.0383 9.49087C10.2807 9.38946 10.5408 9.33712 10.8035 9.33686H13.9805C14.5104 9.34115 15.0174 9.55346 15.3921 9.92799C15.7669 10.3025 15.9793 10.8093 15.9836 11.3389L16 11.3225ZM7.17498 11.3307V14.5061C7.16853 15.0357 6.95403 15.5416 6.57778 15.9146C6.20152 16.2876 5.69364 16.4978 5.1637 16.4999H1.99491C1.73263 16.501 1.47274 16.4501 1.23022 16.3503C0.987704 16.2505 0.76736 16.1037 0.581904 15.9183C0.396447 15.733 0.249548 15.5127 0.149681 15.2703C0.0498143 15.028 -0.00104298 14.7682 4.30499e-05 14.5061V11.3307C0.00215794 10.801 0.212494 10.2934 0.585682 9.91735C0.95887 9.54129 1.465 9.32691 1.99491 9.32045H5.17191C5.70404 9.3259 6.21325 9.53771 6.59212 9.91122C6.96654 10.2887 7.17611 10.7991 7.17498 11.3307Z" fill="#430D4B"/>
</svg>