<svg width="14" height="15" viewBox="0 0 14 15" fill="none" xmlns="http://www.w3.org/2000/svg">
     <path d="M1.45131 1.81634C1.56121 1.30044 1.83228 0.839712 2.22002 0.509712C2.60776 0.179712 3.08916 0 3.58527 0H10.4189C10.9151 0 11.3965 0.179712 11.7842 0.509712C12.172 0.839712 12.443 1.30044 12.553 1.81634L13.9456 8.34963C14.0184 8.69134 14.0181 9.04603 13.9448 9.38755C13.8714 9.72906 13.7269 10.0486 13.5219 10.3224C13.3169 10.5962 13.0567 10.8173 12.7606 10.9692C12.4645 11.1211 12.1402 11.2 11.8116 11.2H6.12723V6.06667C6.12723 5.44784 5.89673 4.85434 5.48631 4.4168C5.07589 3.97926 4.51928 3.73333 3.93892 3.73333H1.31301C1.22019 3.73333 1.12889 3.73963 1.03899 3.752L1.45131 1.81634ZM6.12723 12.6C6.12723 12.7599 6.11261 12.9155 6.08354 13.0667H10.9415C11.0576 13.0667 11.1689 13.0175 11.251 12.93C11.333 12.8425 11.3792 12.7238 11.3792 12.6C11.3792 12.4762 11.333 12.3575 11.251 12.27C11.1689 12.1825 11.0576 12.1333 10.9415 12.1333H6.12723V12.6ZM2.62598 8.4C2.85806 8.4 3.08065 8.30165 3.24488 8.12661C3.40911 7.95156 3.50131 7.71421 3.50131 7.46667C3.50131 7.21912 3.40911 6.98177 3.24488 6.80673C3.08065 6.63168 2.85806 6.53333 2.62598 6.53333C2.39389 6.53333 2.1713 6.63168 2.00707 6.80673C1.84285 6.98177 1.75065 7.21912 1.75065 7.46667C1.75065 7.71421 1.84285 7.95156 2.00707 8.12661C2.1713 8.30165 2.39389 8.4 2.62598 8.4ZM0 6.06667C0 5.69541 0.138297 5.33927 0.38456 5.07673C0.630823 4.81419 0.964818 4.66667 1.31301 4.66667H3.93892C4.28716 4.66667 4.62116 4.81419 4.86742 5.07673C5.11368 5.33927 5.25195 5.69541 5.25195 6.06667V12.6C5.25195 12.9713 5.11368 13.3274 4.86742 13.59C4.62116 13.8525 4.28716 14 3.93892 14H1.31301C0.964818 14 0.630823 13.8525 0.38456 13.59C0.138297 13.3274 0 12.9713 0 12.6V6.06667ZM1.31301 5.6C1.19692 5.6 1.08562 5.64916 1.00354 5.73666C0.921448 5.82415 0.87532 5.9429 0.87532 6.06667V12.6C0.87532 12.7238 0.921448 12.8425 1.00354 12.93C1.08562 13.0175 1.19692 13.0667 1.31301 13.0667H3.93892C4.05501 13.0667 4.1663 13.0175 4.24839 12.93C4.33048 12.8425 4.3766 12.7238 4.3766 12.6V6.06667C4.3766 5.9429 4.33048 5.82415 4.24839 5.73666C4.1663 5.64916 4.05501 5.6 3.93892 5.6H1.31301Z" fill="#7C347E"/> 
 </svg>