<svg width="18" height="19" viewBox="0 0 18 19" fill="none" xmlns="http://www.w3.org/2000/svg">
<path fill-rule="evenodd" clip-rule="evenodd" d="M3.0487 1.8555C4.2662 1.2455 6.3237 0.5 8.5822 0.5C10.7987 0.5 12.8062 1.2185 14.0182 1.8215L14.0787 1.8515C14.4052 2.0165 14.6707 2.172 14.8627 2.3L13.5527 4.2145L12.8127 4.5985C10.2647 5.884 6.8477 5.884 4.2992 4.5985L3.6477 4.3385L2.2627 2.3C2.41821 2.19921 2.57767 2.10464 2.7407 2.0165C2.83636 1.9645 2.93903 1.91083 3.0487 1.8555ZM3.9107 2.444C4.3727 2.589 4.8627 2.716 5.3607 2.808C6.4402 3.007 7.5272 3.0365 8.4572 2.768C9.6392 2.426 10.8797 2.1485 12.0422 1.9845C11.0502 1.658 9.8507 1.4 8.5822 1.4C6.7512 1.4 5.0512 1.9375 3.9107 2.444Z" fill="#7C347E"/>
<path d="M13.2185 5.40209L13.341 5.34009C14.5945 6.67909 15.768 8.39859 16.467 10.1501C15.7151 9.72267 14.8649 9.49864 14 9.50009C13.139 9.49999 12.2925 9.72225 11.5425 10.1454C10.7926 10.5685 10.1647 11.178 9.7195 11.9151C9.36989 11.646 8.94115 11.5001 8.5 11.5001V9.50009C8.935 9.50009 9.3055 9.77759 9.4435 10.1666C9.46398 10.2302 9.49701 10.2891 9.54064 10.3398C9.58427 10.3904 9.63761 10.4318 9.69752 10.4615C9.75743 10.4912 9.82268 10.5085 9.88941 10.5126C9.95615 10.5166 10.023 10.5072 10.086 10.4849C10.1491 10.4626 10.207 10.4279 10.2564 10.3829C10.3058 10.3378 10.3457 10.2833 10.3736 10.2226C10.4016 10.1619 10.4171 10.0962 10.4192 10.0294C10.4213 9.96254 10.4101 9.89597 10.386 9.83359C10.2481 9.44356 9.99274 9.10587 9.65497 8.86705C9.31719 8.62823 8.91368 8.50002 8.5 8.50009V8.00009H7.5V8.50009C6.96957 8.50009 6.46086 8.7108 6.08579 9.08587C5.71072 9.46095 5.5 9.96965 5.5 10.5001C5.5 11.0305 5.71072 11.5392 6.08579 11.9143C6.46086 12.2894 6.96957 12.5001 7.5 12.5001V14.5001C7.065 14.5001 6.6945 14.2226 6.5565 13.8336C6.53603 13.7699 6.503 13.7111 6.45937 13.6604C6.41574 13.6097 6.36239 13.5684 6.30248 13.5387C6.24258 13.509 6.17733 13.4916 6.11059 13.4876C6.04386 13.4836 5.977 13.493 5.91396 13.5153C5.85092 13.5375 5.79299 13.5722 5.7436 13.6173C5.6942 13.6623 5.65434 13.7168 5.62637 13.7776C5.59841 13.8383 5.5829 13.904 5.58078 13.9708C5.57865 14.0376 5.58995 14.1042 5.614 14.1666C5.75186 14.5566 6.00727 14.8943 6.34504 15.1331C6.68281 15.3719 7.08633 15.5002 7.5 15.5001V16.0001H8.5V15.5001C8.70334 15.4994 8.89784 15.4706 9.0835 15.4136C9.30077 16.5821 9.92722 17.6351 10.8505 18.3836C10.1625 18.4586 9.4075 18.4986 8.5825 18.4986C-3.648 18.4986 -0.432998 9.96359 3.7775 5.34359L3.8945 5.40209C6.6975 6.81609 10.4155 6.81609 13.2185 5.40209Z" fill="#7C347E"/>
<path d="M8.5 12.5C8.8115 12.5 9.09 12.6425 9.273 12.866C9.10664 13.3489 9.01524 13.8544 9.002 14.365C8.8545 14.451 8.683 14.5 8.5 14.5V12.5ZM6.5 10.5C6.5 10.2348 6.60536 9.98043 6.79289 9.79289C6.98043 9.60536 7.23478 9.5 7.5 9.5V11.5C7.23478 11.5 6.98043 11.3946 6.79289 11.2071C6.60536 11.0196 6.5 10.7652 6.5 10.5Z" fill="#7C347E"/>
<path fill-rule="evenodd" clip-rule="evenodd" d="M14 18.5C15.0609 18.5 16.0783 18.0786 16.8284 17.3284C17.5786 16.5783 18 15.5609 18 14.5C18 13.4391 17.5786 12.4217 16.8284 11.6716C16.0783 10.9214 15.0609 10.5 14 10.5C12.9391 10.5 11.9217 10.9214 11.1716 11.6716C10.4214 12.4217 10 13.4391 10 14.5C10 15.5609 10.4214 16.5783 11.1716 17.3284C11.9217 18.0786 12.9391 18.5 14 18.5ZM14.5 14.71L15.095 14.1765L15.7625 14.9215L14 16.5005L12.2375 14.9205L12.905 14.176L13.5 14.71V12.5H14.5V14.71Z" fill="#7C347E"/>
</svg>
