<svg width="18" height="18" viewBox="0 0 18 18" fill="none" xmlns="http://www.w3.org/2000/svg">
    <path fill-rule="evenodd" clip-rule="evenodd" d="M2.04889 2.8555C3.26639 2.2455 5.32389 1.5 7.58239 1.5C9.79889 1.5 11.8064 2.2185 13.0184 2.8215L13.0789 2.8515C13.4054 3.0165 13.6709 3.172 13.8629 3.3L12.5529 5.2145L11.8129 5.5985C9.26489 6.884 5.84789 6.884 3.29939 5.5985L2.64789 5.3385L1.26289 3.3C1.41847 3.1992 1.57794 3.1046 1.74089 3.0165C1.83665 2.96455 1.89439 2.93579 1.94889 2.9055C1.98389 2.8855 2.01689 2.8685 2.04889 2.8555ZM2.91089 3.444C3.37289 3.589 3.86289 3.716 4.36089 3.808C5.44039 4.007 6.52739 4.0365 7.45739 3.768C8.63939 3.426 9.87989 3.1485 11.0424 2.9845C10.0504 2.658 8.85089 2.4 7.58239 2.4C5.75139 2.4 4.05139 2.9375 2.91089 3.444Z" fill="#7C347E"/>
    <path d="M12.2185 6.4021L12.341 6.3401C13.5945 7.6791 14.768 9.3986 15.467 11.1501C14.7151 10.7227 13.8649 10.4986 13 10.5001C12.139 10.5 11.2925 10.7223 10.5425 11.1454C9.7926 11.5684 9.1647 12.178 8.7195 12.9151C8.3699 12.646 7.9411 12.5001 7.5 12.5001V10.5001C7.935 10.5001 8.3055 10.7776 8.4435 11.1666C8.586 11.8336 8.2481 12.4436 7.655 12.8671C7.3172 13.1282 6.9137 13.5 6.5 13.5001V13.0001H5.5V13.5001C4.9696 13.5001 4.4609 13.7108 4.0858 14.0859C3.7107 14.4609 3.5 14.9697 3.5 15.5001C3.5 16.0305 3.7107 16.5392 4.0858 16.9143C4.4609 17.2894 4.9696 17.5001 5.5 17.5001V19.5001C4.935 19.5001 4.3055 19.2226 4.4435 18.8336C4.7519 17.5566 5.0073 17.8943 5.345 18.1331C5.6828 18.3719 6.0863 18.5002 6.5 18.5001V19.0001H7.5V18.5001C7.7033 18.4994 7.8978 18.4706 8.0835 18.4136C8.3008 19.5821 8.9272 20.6351 9.8505 21.3836C9.1625 21.4586 8.4075 21.4986 7.5825 21.4986C-4.648 21.4986 -1.433 12.9636 2.7775 6.3436L2.8945 6.4021C5.6975 7.8161 9.4155 7.8161 12.2185 6.4021Z" fill="#7C347E"/>
</svg>