<svg width="16" height="17" viewBox="0 0 16 17" fill="none" xmlns="http://www.w3.org/2000/svg">
  <path d="M3.72631 5.9941L6.86315 0.898434C6.94737 0.758635 7.05263 0.657141 7.17894 0.593952C7.30526 0.530763 7.43859 0.499448 7.57894 0.500007C7.7193 0.500567 7.85263 0.532161 7.97894 0.594791C8.10526 0.657421 8.21052 0.758635 8.29473 0.898434L11.4316 5.9941C11.5158 6.1339 11.5579 6.28069 11.5579 6.43447C11.5579 6.58825 11.5228 6.72805 11.4526 6.85387C11.3825 6.97969 11.2842 7.08118 11.1579 7.15835C11.0316 7.23552 10.8842 7.27382 10.7158 7.27326H4.4421C4.27368 7.27326 4.12631 7.23496 4 7.15835C3.87368 7.08174 3.77544 6.98024 3.70526 6.85387C3.63509 6.72749 3.6 6.58769 3.6 6.43447C3.6 6.28125 3.6421 6.13446 3.72631 5.9941ZM12.2105 16.5C11.1579 16.5 10.2633 16.1332 9.52673 15.3995C8.79017 14.6658 8.42161 13.7745 8.42105 12.7254C8.42049 11.6764 8.78905 10.7853 9.52673 10.0522C10.2644 9.31908 11.159 8.95197 12.2105 8.95085C13.262 8.94973 14.1569 9.31684 14.8952 10.0522C15.6334 10.7875 16.0017 11.6786 16 12.7254C15.9983 13.7722 15.63 14.6636 14.8952 15.3995C14.1603 16.1354 13.2654 16.5022 12.2105 16.5ZM0 15.2418V10.209C0 9.97138 0.0808422 9.77231 0.242526 9.61182C0.40421 9.45133 0.60407 9.3708 0.842105 9.37025H5.89473C6.13333 9.37025 6.33347 9.45077 6.49516 9.61182C6.65684 9.77287 6.7374 9.97194 6.73684 10.209V15.2418C6.73684 15.4795 6.656 15.6788 6.49431 15.8399C6.33263 16.0009 6.13277 16.0812 5.89473 16.0806H0.842105C0.603509 16.0806 0.403649 16.0001 0.242526 15.839C0.0814036 15.678 0.000561403 15.4789 0 15.2418Z" fill="#430D4B"/>
</svg>