<svg width="16" height="13" viewBox="0 0 16 13" fill="none" xmlns="http://www.w3.org/2000/svg">
<path d="M2.68187 12.5C1.95211 12.5 1.32877 12.2313 0.811859 11.6938C0.294945 11.1562 0.0243254 10.5062 0 9.74375C0 9.63125 0.00608134 9.51875 0.018244 9.40625C0.0304067 9.29375 0.0486507 9.18125 0.0729761 9.06875L1.60547 2.76875C1.77575 2.09375 2.12239 1.54688 2.64538 1.12813C3.16838 0.709375 3.76435 0.5 4.4333 0.5H11.5485C12.2174 0.5 12.8134 0.709375 13.3364 1.12813C13.8594 1.54688 14.206 2.09375 14.3763 2.76875L15.9088 9.06875C15.9331 9.18125 15.9544 9.29688 15.9726 9.41562C15.9909 9.53437 16 9.65 16 9.7625C16 10.525 15.7355 11.1719 15.2064 11.7031C14.6773 12.2344 14.0418 12.5 13.2999 12.5C12.7891 12.5 12.3147 12.3625 11.8769 12.0875C11.439 11.8125 11.1106 11.4375 10.8917 10.9625L10.3808 9.875C10.32 9.75 10.2288 9.65625 10.1072 9.59375C9.98556 9.53125 9.85785 9.5 9.72406 9.5H6.2577C6.12391 9.5 5.9962 9.53125 5.87457 9.59375C5.75295 9.65625 5.66173 9.75 5.60091 9.875L5.09008 10.9625C4.87115 11.4375 4.54276 11.8125 4.1049 12.0875C3.66705 12.3625 3.1927 12.5 2.68187 12.5ZM9.08552 5.75C9.29228 5.75 9.4656 5.67813 9.60547 5.53438C9.74534 5.39062 9.81528 5.2125 9.81528 5C9.81528 4.7875 9.74534 4.60938 9.60547 4.46562C9.4656 4.32187 9.29228 4.25 9.08552 4.25C8.87875 4.25 8.70544 4.32187 8.56557 4.46562C8.42569 4.60938 8.35576 4.7875 8.35576 5C8.35576 5.2125 8.42569 5.39062 8.56557 5.53438C8.70544 5.67813 8.87875 5.75 9.08552 5.75ZM10.545 4.25C10.7518 4.25 10.9251 4.17813 11.065 4.03438C11.2049 3.89063 11.2748 3.7125 11.2748 3.5C11.2748 3.2875 11.2049 3.10938 11.065 2.96563C10.9251 2.82188 10.7518 2.75 10.545 2.75C10.3383 2.75 10.165 2.82188 10.0251 2.96563C9.88522 3.10938 9.81528 3.2875 9.81528 3.5C9.81528 3.7125 9.88522 3.89063 10.0251 4.03438C10.165 4.17813 10.3383 4.25 10.545 4.25ZM10.545 7.25C10.7518 7.25 10.9251 7.17813 11.065 7.03438C11.2049 6.89062 11.2748 6.7125 11.2748 6.5C11.2748 6.2875 11.2049 6.10938 11.065 5.96562C10.9251 5.82187 10.7518 5.75 10.545 5.75C10.3383 5.75 10.165 5.82187 10.0251 5.96562C9.88522 6.10938 9.81528 6.2875 9.81528 6.5C9.81528 6.7125 9.88522 6.89062 10.0251 7.03438C10.165 7.17813 10.3383 7.25 10.545 7.25ZM12.0046 5.75C12.2113 5.75 12.3846 5.67813 12.5245 5.53438C12.6644 5.39062 12.7343 5.2125 12.7343 5C12.7343 4.7875 12.6644 4.60938 12.5245 4.46562C12.3846 4.32187 12.2113 4.25 12.0046 4.25C11.7978 4.25 11.6245 4.32187 11.4846 4.46562C11.3447 4.60938 11.2748 4.7875 11.2748 5C11.2748 5.2125 11.3447 5.39062 11.4846 5.53438C11.6245 5.67813 11.7978 5.75 12.0046 5.75ZM5.43672 6.875C5.59483 6.875 5.72558 6.82188 5.82896 6.71563C5.93235 6.60938 5.98404 6.475 5.98404 6.3125V5.5625H6.7138C6.87191 5.5625 7.00266 5.50937 7.10604 5.40312C7.20943 5.29688 7.26112 5.1625 7.26112 5C7.26112 4.8375 7.20943 4.70312 7.10604 4.59688C7.00266 4.49063 6.87191 4.4375 6.7138 4.4375H5.98404V3.6875C5.98404 3.525 5.93235 3.39063 5.82896 3.28438C5.72558 3.17813 5.59483 3.125 5.43672 3.125C5.2786 3.125 5.14785 3.17813 5.04447 3.28438C4.94109 3.39063 4.8894 3.525 4.8894 3.6875V4.4375H4.15964C4.00152 4.4375 3.87077 4.49063 3.76739 4.59688C3.66401 4.70312 3.61231 4.8375 3.61231 5C3.61231 5.1625 3.66401 5.29688 3.76739 5.40312C3.87077 5.50937 4.00152 5.5625 4.15964 5.5625H4.8894V6.3125C4.8894 6.475 4.94109 6.60938 5.04447 6.71563C5.14785 6.82188 5.2786 6.875 5.43672 6.875Z" fill="#420D4B"/>
</svg>