<svg width="16" height="17" viewBox="0 0 16 17" fill="none" xmlns="http://www.w3.org/2000/svg">
<path d="M3.33333 0.5C2.44928 0.5 1.60143 0.851189 0.976311 1.47631C0.351189 2.10143 0 2.94928 0 3.83333V13.1667C0 14.0507 0.351189 14.8986 0.976311 15.5237C1.60143 16.1488 2.44928 16.5 3.33333 16.5H12.6667C13.5507 16.5 14.3986 16.1488 15.0237 15.5237C15.6488 14.8986 16 14.0507 16 13.1667V3.83333C16 2.94928 15.6488 2.10143 15.0237 1.47631C14.3986 0.851189 13.5507 0.5 12.6667 0.5H3.33333ZM4.66667 4.5H11.3333C11.5101 4.5 11.6797 4.57024 11.8047 4.69526C11.9298 4.82029 12 4.98986 12 5.16667C12 5.34348 11.9298 5.51305 11.8047 5.63807C11.6797 5.7631 11.5101 5.83333 11.3333 5.83333H4.66667C4.48986 5.83333 4.32029 5.7631 4.19526 5.63807C4.07024 5.51305 4 5.34348 4 5.16667C4 4.98986 4.07024 4.82029 4.19526 4.69526C4.32029 4.57024 4.48986 4.5 4.66667 4.5ZM4.66667 7.83333H8.66667C8.84348 7.83333 9.01305 7.90357 9.13807 8.0286C9.2631 8.15362 9.33333 8.32319 9.33333 8.5C9.33333 8.67681 9.2631 8.84638 9.13807 8.97141C9.01305 9.09643 8.84348 9.16667 8.66667 9.16667H4.66667C4.48986 9.16667 4.32029 9.09643 4.19526 8.97141C4.07024 8.84638 4 8.67681 4 8.5C4 8.32319 4.07024 8.15362 4.19526 8.0286C4.32029 7.90357 4.48986 7.83333 4.66667 7.83333ZM4.66667 11.1667H11.3333C11.5101 11.1667 11.6797 11.2369 11.8047 11.3619C11.9298 11.487 12 11.6565 12 11.8333C12 12.0101 11.9298 12.1797 11.8047 12.3047C11.6797 12.4298 11.5101 12.5 11.3333 12.5H4.66667C4.48986 12.5 4.32029 12.4298 4.19526 12.3047C4.07024 12.1797 4 12.0101 4 11.8333C4 11.6565 4.07024 11.487 4.19526 11.3619C4.32029 11.2369 4.48986 11.1667 4.66667 11.1667Z" fill="#430D4B"/>
</svg>