<svg width="14" height="16" viewBox="0 0 14 16" fill="none" xmlns="http://www.w3.org/2000/svg">
<path d="M7 0C6.10169 0 5.24016 0.383598 4.60496 1.06641C3.96976 1.74922 3.6129 2.6753 3.6129 3.64094C3.6129 4.60658 3.96976 5.53267 4.60496 6.21548C5.24016 6.89829 6.10169 7.28188 7 7.28188C7.89831 7.28188 8.75983 6.89829 9.39504 6.21548C10.0302 5.53267 10.3871 4.60658 10.3871 3.64094C10.3871 2.6753 10.0302 1.74922 9.39504 1.06641C8.75983 0.383598 7.89831 0 7 0ZM3.3871 9.22372C2.48878 9.22372 1.62726 9.60732 0.992058 10.2901C0.356854 10.9729 0 11.899 0 12.8647V14.0181C0 14.7502 0.493161 15.3735 1.16516 15.491C5.02916 16.1697 8.97084 16.1697 12.8348 15.491C13.1598 15.4335 13.4553 15.2539 13.6687 14.9842C13.882 14.7145 13.9994 14.3722 14 14.0181V12.8647C14 11.899 13.6431 10.9729 13.0079 10.2901C12.3727 9.60732 11.5112 9.22372 10.6129 9.22372H10.3058C10.1372 9.22437 9.97342 9.2522 9.81445 9.30722L9.03226 9.58199C7.71171 10.0454 6.28829 10.0454 4.96774 9.58199L4.18555 9.30722C4.02701 9.25256 3.86159 9.22439 3.6951 9.22372H3.3871Z" fill="#7C347E"/>
</svg>
