<svg width="14" height="14" viewBox="0 0 14 14" fill="none" xmlns="http://www.w3.org/2000/svg">
<path d="M1.45128 1.81627C1.56122 1.30042 1.83229 0.839711 2.22004 0.509702C2.60778 0.179692 3.08919 -3.29775e-05 3.58531 4.5387e-09H10.4189C10.9151 -3.29775e-05 11.3965 0.179692 11.7842 0.509702C12.172 0.839711 12.443 1.30042 12.553 1.81627L13.9456 8.3496C14.0184 8.69125 14.0181 9.04601 13.9448 9.38753C13.8714 9.72905 13.7269 10.0486 13.5219 10.3224C13.3169 10.5962 13.0567 10.8173 12.7606 10.9692C12.4645 11.1211 12.1402 11.2 11.8116 11.2H6.12724V6.06667C6.12724 5.44783 5.89669 4.85434 5.4863 4.41675C5.07591 3.97917 4.51931 3.73333 3.93894 3.73333H1.31298C1.2202 3.73333 1.12887 3.73956 1.039 3.752L1.45128 1.81627ZM6.12724 12.6C6.12724 12.7599 6.11265 12.9155 6.08347 13.0667H10.9415C11.0576 13.0667 11.1689 13.0175 11.251 12.93C11.333 12.8425 11.3792 12.7238 11.3792 12.6C11.3792 12.4762 11.333 12.3575 11.251 12.27C11.1689 12.1825 11.0576 12.1333 10.9415 12.1333H6.12724V12.6ZM2.62596 8.4C2.85811 8.4 3.08075 8.30167 3.2449 8.12663C3.40906 7.9516 3.50128 7.7142 3.50128 7.46667C3.50128 7.21913 3.40906 6.98173 3.2449 6.8067C3.08075 6.63167 2.85811 6.53333 2.62596 6.53333C2.39381 6.53333 2.17117 6.63167 2.00701 6.8067C1.84286 6.98173 1.75064 7.21913 1.75064 7.46667C1.75064 7.7142 1.84286 7.9516 2.00701 8.12663C2.17117 8.30167 2.39381 8.4 2.62596 8.4ZM0 6.06667C0 5.69536 0.138331 5.33927 0.384563 5.07672C0.630794 4.81417 0.964756 4.66667 1.31298 4.66667H3.93894C4.28716 4.66667 4.62112 4.81417 4.86736 5.07672C5.11359 5.33927 5.25192 5.69536 5.25192 6.06667V12.6C5.25192 12.9713 5.11359 13.3274 4.86736 13.5899C4.62112 13.8525 4.28716 14 3.93894 14H1.31298C0.964756 14 0.630794 13.8525 0.384563 13.5899C0.138331 13.3274 0 12.9713 0 12.6V6.06667ZM1.31298 5.6C1.1969 5.6 1.08558 5.64917 1.00351 5.73668C0.92143 5.8242 0.87532 5.9429 0.87532 6.06667V12.6C0.87532 12.7238 0.92143 12.8425 1.00351 12.93C1.08558 13.0175 1.1969 13.0667 1.31298 13.0667H3.93894C4.05501 13.0667 4.16633 13.0175 4.24841 12.93C4.33049 12.8425 4.3766 12.7238 4.3766 12.6V6.06667C4.3766 5.9429 4.33049 5.8242 4.24841 5.73668C4.16633 5.64917 4.05501 5.6 3.93894 5.6H1.31298Z" fill="#7C347E"/>
</svg>
